#!OML:ASF H:\BreakDance\Project 1\Capture day 1\Session 1\Male.ASF
:FULLY-SPECIFIED
:DEGREES
1
root 12.6834 18.1529 -2.8412 -147.994 -65.3125 -30.8653
lowerback -4.35273 5.28931 4.95399
upperback -3.87491 6.89551 2.73558
thorax -1.33329 3.38445 0.293733
lowerneck -10.7034 4.23885 -18.0796
upperneck -11.5385 6.58913 1.00266
head -2.50463 3.73869 3.19373
rclavicle -1.07344e-013 -7.31528e-014
rhumerus 50.6459 -10.9402 -39.2423
rradius 65.6447
rwrist -28.2942
rhand -41.2872 -46.4492
rfingers 7.12502
rthumb -14.2084 -75.9433
lclavicle -1.07344e-013 -7.31528e-014
lhumerus 77.9675 35.6419 42.8979
lradius 48.2081
lwrist -10.7614
lhand -49.4386 -82.1117
lfingers 7.12502
lthumb -22.0502 -53.3488
rfemur 13.2479 6.68467 7.64644
rtibia 47.9119
rfoot 13.4491 7.16012
rtoes -28.676
lfemur -31.983 10.207 -24.1637
ltibia 65.7349
lfoot 11.7739 5.57458
ltoes 53.9968
2
root 12.7541 18.1387 -2.89791 -142.754 -68.7704 -35.9905
lowerback -3.15957 8.1727 7.9914
upperback -5.53066 10.4276 -3.77665
thorax -1.90296 4.78376 -8.02086
lowerneck -8.45867 2.63533 -2.08901
upperneck -11.7648 3.64909 -1.75711
head -2.29601 1.91807 -0.188803
rclavicle 1.44318e-013 4.6118e-014
rhumerus 45.9076 -21.1823 -45.9171
rradius 59.7814
rwrist -24.8159
rhand -39.1594 -42.6886
rfingers 7.12502
rthumb -12.1573 -72.3153
lclavicle 1.44318e-013 4.6118e-014
lhumerus 87.3473 26.767 43.1972
lradius 49.5046
lwrist -9.27275
lhand -48.934 -79.9074
lfingers 7.12502
lthumb -21.5656 -51.0881
rfemur 12.8905 6.14811 7.97134
rtibia 47.9828
rfoot 9.00794 3.56843
rtoes -36.2571
lfemur -31.9698 11.0216 -23.6393
ltibia 65.7158
lfoot 11.0718 -1.96138
ltoes 41.4937
3
root 12.8166 18.1285 -2.96345 -134.725 -71.7518 -44.2218
lowerback -4.14788 5.61995 5.76936
upperback -4.49805 7.08819 -3.35144
thorax -1.22348 3.2829 -6.41786
lowerneck -9.91649 5.50696 4.54996
upperneck -12.1381 6.9341 -4.75491
head -1.85823 3.34226 -2.17878
rclavicle -4.19436e-014 2.70347e-014
rhumerus 54.439 -19.0769 -50.6044
rradius 55.9306
rwrist -25.1907
rhand -38.7927 -43.2508
rfingers 7.12502
rthumb -11.8037 -72.8981
lclavicle -4.19436e-014 2.70347e-014
lhumerus 83.0739 31.7934 37.181
lradius 50.3065
lwrist -8.43328
lhand -49.5038 -78.2489
lfingers 7.12502
lthumb -22.1128 -49.4934
rfemur 12.8014 5.62806 7.85112
rtibia 48.0593
rfoot 7.40862 2.78934
rtoes -30.9808
lfemur -31.7098 11.8035 -23.4785
ltibia 65.3116
lfoot 6.0182 -9.66737
ltoes 9.42127
4
root 12.8998 18.0693 -3.04063 -123.364 -74.1553 -55.8474
lowerback -3.76628 5.875 5.78192
upperback -4.66868 7.44663 -3.22734
thorax -1.5736 3.44553 -6.32287
lowerneck -9.53998 4.38528 0.767873
upperneck -12.1149 5.81133 -2.93285
head -2.1173 2.90107 -0.992258
rclavicle 1.05157e-013 4.92986e-014
rhumerus 56.8566 -19.9519 -47.8032
rradius 52.4038
rwrist -26.3801
rhand -39.8944 -45.2357
rfingers 7.12502
rthumb -12.8659 -74.8192
lclavicle 1.05157e-013 4.92986e-014
lhumerus 82.6409 30.6741 38.1977
lradius 50.519
lwrist -7.03368
lhand -49.6692 -78.3311
lfingers 7.12502
lthumb -22.2716 -49.5944
rfemur 12.7623 5.24363 7.73195
rtibia 48.0813
rfoot 5.64856 2.20279
rtoes -24.5742
lfemur -31.158 12.1024 -23.4639
ltibia 64.7388
lfoot 3.77072 -11.0795
ltoes -3.51133
5
root 12.9738 18.043 -3.10982 -108.971 -75.8165 -70.3952
lowerback -3.73391 5.53485 5.55066
upperback -4.5263 6.99438 -3.77101
thorax -1.47076 3.22736 -6.78555
lowerneck -10.1528 4.49199 2.27632
upperneck -11.934 5.77147 -3.13333
head -1.91151 2.79207 -1.28312
rclavicle 1.28415e-013 8.18993e-014
rhumerus 60.3889 -20.9203 -48.8369
rradius 48.9017
rwrist -26.6606
rhand -40.3927 -46.3533
rfingers 7.12502
rthumb -13.3463 -75.9058
lclavicle 1.28415e-013 8.18993e-014
lhumerus 82.1356 30.6672 37.002
lradius 51.1943
lwrist -5.85903
lhand -49.8665 -77.6508
lfingers 7.12502
lthumb -22.4609 -48.9369
rfemur 12.7453 4.83552 7.54391
rtibia 48.1176
rfoot 3.56263 1.45696
rtoes -19.5103
lfemur -30.9272 12.7168 -23.2763
ltibia 64.2954
lfoot 1.55367 -12.725
ltoes -14.3278
6
root 13.0526 18.0117 -3.1811 -92.1338 -76.3489 -87.369
lowerback -3.68598 5.20583 5.30246
upperback -4.43732 6.57096 -3.95684
thorax -1.47627 3.02658 -6.86758
lowerneck -10.5265 4.36121 2.18989
upperneck -11.674 5.58124 -2.93213
head -1.77835 2.68232 -1.19204
rclavicle -2.52457e-014 -5.40694e-014
rhumerus 63.135 -21.2824 -48.8208
rradius 46.2547
rwrist -27.5021
rhand -41.3259 -47.8915
rfingers 7.12502
rthumb -14.2457 -77.3829
lclavicle -2.52457e-014 -5.40694e-014
lhumerus 81.1907 30.6265 36.2381
lradius 51.8095
lwrist -4.71817
lhand -50.148 -77.2492
lfingers 7.12502
lthumb -22.7311 -48.5682
rfemur 12.7574 4.53761 7.32402
rtibia 48.1272
rfoot 2.02645 1.12138
rtoes -13.033
lfemur -30.7139 13.2961 -23.1205
ltibia 63.7987
lfoot 0.298896 -13.6927
ltoes -19.9234
7
root 13.1375 17.9747 -3.2536 -75.5052 -75.6936 -104.09
lowerback -3.65916 5.05263 5.18749
upperback -4.43045 6.37075 -4.15521
thorax -1.50544 2.92813 -7.02611
lowerneck -10.6834 4.00813 1.72559
upperneck -11.3402 5.13201 -2.6374
head -1.67358 2.46134 -1.01995
rclavicle -8.8658e-014 -2.3059e-014
rhumerus 64.6967 -21.6958 -48.4564
rradius 44.4131
rwrist -28.3774
rhand -42.412 -49.3309
rfingers 7.12502
rthumb -15.2921 -78.7455
lclavicle -8.8658e-014 -2.3059e-014
lhumerus 80.5184 30.1675 35.9579
lradius 52.4384
lwrist -3.59855
lhand -50.4444 -76.9913
lfingers 7.12502
lthumb -23.0156 -48.3455
rfemur 12.7432 4.3779 7.15315
rtibia 48.1659
rfoot 1.01277 0.99618
rtoes -8.00407
lfemur -30.5665 13.8465 -22.9307
ltibia 63.3544
lfoot -0.184645 -14.2615
ltoes -21.9717
8
root 13.2286 17.9318 -3.3272 -61.3949 -74.0436 -118.253
lowerback -3.69246 4.89274 5.09801
upperback -4.43195 6.15919 -4.34742
thorax -1.51062 2.82434 -7.18829
lowerneck -10.7618 3.68566 1.39469
upperneck -10.9561 4.71321 -2.436
head -1.55706 2.25449 -0.901376
rclavicle 2.1747e-013 2.62396e-014
rhumerus 65.5018 -21.9895 -48.1788
rradius 43.2814
rwrist -29.0724
rhand -43.3709 -50.4603
rfingers 7.12502
rthumb -16.2156 -79.8022
lclavicle 2.1747e-013 2.62396e-014
lhumerus 79.8459 29.6983 35.6856
lradius 53.1162
lwrist -2.48211
lhand -50.7467 -76.7373
lfingers 7.12502
lthumb -23.3056 -48.1279
rfemur 12.687 4.37364 7.06743
rtibia 48.245
rfoot 0.593272 1.03396
rtoes -5.38544
lfemur -30.4564 14.3871 -22.6778
ltibia 62.8839
lfoot -0.154294 -14.5978
ltoes -21.7401
9
root 13.3253 17.8829 -3.40149 -50.3962 -71.7122 -129.282
lowerback -3.78165 4.71471 5.05228
upperback -4.40301 5.92384 -4.51578
thorax -1.45608 2.71188 -7.34521
lowerneck -10.8551 3.40157 1.07514
upperneck -10.5598 4.35053 -2.23446
head -1.43205 2.07643 -0.784512
rclavicle -4.37326e-014 -4.77083e-015
rhumerus 65.8137 -22.2299 -47.9685
rradius 42.6305
rwrist -29.364
rhand -43.9385 -51.1681
rfingers 7.12502
rthumb -16.762 -80.4646
lclavicle -4.37326e-014 -4.77083e-015
lhumerus 79.1578 29.3132 35.4006
lradius 53.871
lwrist -1.28592
lhand -51.0396 -76.4416
lfingers 7.12502
lthumb -23.5866 -47.8681
rfemur 12.5985 4.52435 7.08933
rtibia 48.3803
rfoot 0.675173 1.19829
rtoes -3.787
lfemur -30.3922 14.9391 -22.3392
ltibia 62.3973
lfoot -0.111457 -14.9411
ltoes -21.2342
10
root 13.4262 17.8287 -3.47591 -42.0425 -68.9492 -137.664
lowerback -3.89847 4.52094 5.04577
upperback -4.34639 5.66893 -4.66026
thorax -1.36052 2.59213 -7.49737
lowerneck -10.8932 3.14957 0.747599
upperneck -10.2633 4.03655 -2.03379
head -1.34632 1.92352 -0.669643
rclavicle -3.39922e-014 1.11319e-014
rhumerus 65.779 -22.4393 -47.7888
rradius 42.2712
rwrist -29.1301
rhand -44.0771 -51.4875
rfingers 7.12502
rthumb -16.8955 -80.7725
lclavicle -3.39922e-014 1.11319e-014
lhumerus 78.5038 28.8968 35.2191
lradius 54.7052
lwrist -0.0205851
lhand -51.2759 -76.1148
lfingers 7.12502
lthumb -23.8132 -47.5707
rfemur 12.4622 4.79615 7.20556
rtibia 48.5983
rfoot 1.1627 1.52648
rtoes -3.4464
lfemur -30.353 15.5218 -21.9169
ltibia 61.8976
lfoot -0.0762092 -15.265
ltoes -20.7953
11
root 13.5295 17.7719 -3.55043 -35.6921 -65.9151 -144.049
lowerback -4.0157 4.30503 5.04633
upperback -4.25916 5.38772 -4.76999
thorax -1.24123 2.46201 -7.61782
lowerneck -10.867 2.91961 0.39435
upperneck -10.1198 3.75588 -1.86828
head -1.31779 1.78854 -0.564921
rclavicle 9.93923e-015 1.90833e-014
rhumerus 65.8345 -22.6239 -47.4887
rradius 41.7648
rwrist -28.5269
rhand -43.887 -51.7071
rfingers 7.12502
rthumb -16.7124 -81.0077
lclavicle 9.93923e-015 1.90833e-014
lhumerus 77.8339 28.5223 35.0804
lradius 55.6499
lwrist 1.48304
lhand -51.4034 -75.7087
lfingers 7.12502
lthumb -23.9355 -47.1806
rfemur 12.2797 5.1551 7.37644
rtibia 48.9059
rfoot 1.68251 1.96453
rtoes -2.14772
lfemur -30.3338 16.1529 -21.4322
ltibia 61.3964
lfoot -0.0453117 -15.5426
ltoes -20.5915
12
root 13.6335 17.7149 -3.6248 -30.7978 -62.7182 -148.997
lowerback -4.09782 4.07925 5.0578
upperback -4.15019 5.09623 -4.85873
thorax -1.12279 2.32769 -7.72557
lowerneck -10.7557 2.69755 0.120061
upperneck -10.1103 3.47234 -1.82809
head -1.34049 1.65068 -0.515124
rclavicle 2.06338e-013 5.40694e-014
rhumerus 65.9361 -22.7876 -47.0524
rradius 41.1518
rwrist -27.7066
rhand -43.5589 -52.0093
rfingers 7.12502
rthumb -16.3966 -81.3363
lclavicle 2.06338e-013 5.40694e-014
lhumerus 77.2456 28.0991 35.1096
lradius 56.6787
lwrist 3.13887
lhand -51.4252 -75.3749
lfingers 7.12502
lthumb -23.9564 -46.8495
rfemur 12.056 5.54889 7.56187
rtibia 49.304
rfoot 2.21217 2.56028
rtoes -0.25419
lfemur -30.3174 16.8331 -20.8919
ltibia 60.9028
lfoot -0.0473928 -15.7627
ltoes -20.5614
13
root 13.7377 17.6588 -3.69875 -27.0362 -59.421 -152.836
lowerback -4.10118 3.85467 5.05462
upperback -4.02561 4.80932 -4.95325
thorax -1.03298 2.19498 -7.83658
lowerneck -10.6295 2.46814 -0.059329
upperneck -10.1475 3.16232 -1.91459
head -1.37636 1.49747 -0.520887
rclavicle 3.51849e-014 1.27222e-014
rhumerus 66.0184 -22.9289 -46.466
rradius 40.5173
rwrist -26.9083
rhand -43.3258 -52.4626
rfingers 7.12502
rthumb -16.1721 -81.808
lclavicle 3.51849e-014 1.27222e-014
lhumerus 76.7973 27.5901 35.3391
lradius 57.7534
lwrist 4.89481
lhand -51.3485 -75.2855
lfingers 7.12502
lthumb -23.8829 -46.7505
rfemur 11.81 5.92891 7.67727
rtibia 49.7675
rfoot 2.69543 3.34924
rtoes 1.4333
lfemur -30.276 17.5608 -20.3351
ltibia 60.4124
lfoot -0.0821033 -15.8577
ltoes -20.6668
14
root 13.8424 17.6035 -3.77189 -24.1906 -56.079 -155.769
lowerback -4.01658 3.64009 4.99658
upperback -3.90075 4.53795 -5.07962
thorax -0.991697 2.06812 -7.95524
lowerneck -10.5379 2.23408 -0.103236
upperneck -10.0998 2.8288 -2.09578
head -1.37656 1.3292 -0.576808
rclavicle -1.00187e-013 -4.13472e-014
rhumerus 66.0201 -23.0205 -45.7445
rradius 39.9441
rwrist -26.3096
rhand -43.2428 -53.0767
rfingers 7.12502
rthumb -16.0921 -82.4285
lclavicle -1.00187e-013 -4.13472e-014
lhumerus 76.4569 27.0023 35.6913
lradius 58.8495
lwrist 6.70973
lhand -51.1786 -75.4083
lfingers 7.12502
lthumb -23.7199 -46.852
rfemur 11.5498 6.27031 7.63081
rtibia 50.2608
rfoot 3.10108 4.33393
rtoes 2.67537
lfemur -30.1729 18.3289 -19.8066
ltibia 59.9041
lfoot -0.135659 -15.7802
ltoes -20.7874
15
root 13.95 17.5458 -3.84297 -22.0513 -52.7497 -157.98
lowerback -3.88122 3.43851 4.85491
upperback -3.78072 4.28499 -5.23749
thorax -0.984654 1.94937 -8.0613
lowerneck -10.5179 2.00186 -0.0376176
upperneck -9.89312 2.48847 -2.32673
head -1.3136 1.1548 -0.663815
rclavicle 1.43821e-013 3.57812e-015
rhumerus 65.9358 -23.0317 -44.9559
rradius 39.5017
rwrist -25.972
rhand -43.2227 -53.8236
rfingers 7.12502
rthumb -16.0728 -83.177
lclavicle 1.43821e-013 3.57812e-015
lhumerus 76.1612 26.3632 36.0978
lradius 59.943
lwrist 8.48678
lhand -51.005 -75.7079
lfingers 7.12502
lthumb -23.5534 -47.1302
rfemur 11.2786 6.56774 7.3755
rtibia 50.7336
rfoot 3.46972 5.47756
rtoes 3.95521
lfemur -29.9899 19.1238 -19.3238
ltibia 59.3387
lfoot -0.175137 -15.5326
ltoes -20.9795
